<svg xmlns="http://www.w3.org/2000/svg" width="2560" height="1964" fill="none" viewBox="0 0 2560 1964"><g filter="url(#a)"><path fill="#4314cb" d="m1113.38-1182.65-196.67 130.37L1643.69 59.53l196.67-130.37z" opacity=".67"/><path fill="#8c35ec" d="M916.707-1052.28 720.036-921.909l726.98 1111.81 196.671-130.372z"/><path fill="#bb44f0" d="M720.036-921.907 523.365-791.536l726.98 1111.81 196.671-130.372z"/><path fill="#e554f3" d="M523.366-791.536 326.695-661.165l726.98 1111.81 196.671-130.372z"/><path fill="#f664e4" d="M326.696-661.165 130.025-530.794l726.98 1111.81 196.671-130.372z"/><path fill="#f974cc" d="M130.026-530.794-66.645-400.423l726.98 1111.81 196.671-130.372z"/><path fill="#fb85b9" d="m-66.646-400.423-196.672 130.371 726.98 1111.81 196.672-130.372z"/><path fill="#fd97ae" d="m-263.317-270.052-196.671 130.371 726.98 1111.81 196.671-130.372z"/><path fill="#fea9aa" d="M-459.987-139.681-656.658-9.31 70.322 1102.5l196.671-130.372z"/><path fill="#ffc9bb" d="m-656.658-9.31-196.671 130.37 726.98 1111.81 196.671-130.372z"/></g><defs><filter id="a" width="4680.37" height="4137" x="-1650" y="-2173.76" color-interpolation-filters="sRGB" filterUnits="userSpaceOnUse"><feFlood flood-opacity="0" result="BackgroundImageFix"/><feBlend in="SourceGraphic" in2="BackgroundImageFix" result="shape"/><feGaussianBlur result="effect1_foregroundBlur_835_19" stdDeviation="300"/></filter></defs></svg>